<svg width="204" height="25" viewBox="0 0 204 25" fill="none" xmlns="http://www.w3.org/2000/svg">
<path d="M17.912 11.904C18.4667 11.904 18.9253 12.096 19.288 12.48C19.6507 12.8427 19.832 13.3013 19.832 13.856V20.64C19.832 21.3867 19.5013 21.9627 18.84 22.368C16.7493 23.6693 14.456 24.32 11.96 24.32C9.848 24.32 7.896 23.808 6.104 22.784C4.312 21.7387 2.89333 20.3413 1.848 18.592C0.802667 16.8213 0.28 14.8907 0.28 12.8C0.28 10.7093 0.802667 8.78933 1.848 7.04C2.89333 5.26933 4.312 3.872 6.104 2.848C7.896 1.80267 9.848 1.28 11.96 1.28C14.072 1.28 15.9067 1.70667 17.464 2.56C17.784 2.73067 18.0187 2.95466 18.168 3.232C18.3387 3.50933 18.424 3.808 18.424 4.128C18.424 4.66133 18.2427 5.13067 17.88 5.536C17.5387 5.92 17.112 6.112 16.6 6.112C16.28 6.112 15.928 6.02667 15.544 5.856C14.392 5.36533 13.1973 5.12 11.96 5.12C10.5947 5.12 9.336 5.472 8.184 6.176C7.032 6.85867 6.11467 7.78667 5.432 8.96C4.77067 10.1333 4.44 11.4133 4.44 12.8C4.44 14.1867 4.77067 15.4667 5.432 16.64C6.11467 17.8133 7.032 18.752 8.184 19.456C9.336 20.1387 10.5947 20.48 11.96 20.48C12.5573 20.48 13.1973 20.4267 13.88 20.32C14.5627 20.2133 15.16 20.0747 15.672 19.904V15.744H12.664C12.1093 15.744 11.64 15.5627 11.256 15.2C10.8933 14.8373 10.712 14.3787 10.712 13.824C10.712 13.2693 10.8933 12.8107 11.256 12.448C11.64 12.0853 12.1093 11.904 12.664 11.904H17.912ZM26.9773 22.048C26.9773 22.6027 26.7959 23.072 26.4333 23.456C26.0706 23.8187 25.6119 24 25.0573 24C24.5026 24 24.0439 23.8187 23.6813 23.456C23.3186 23.072 23.1373 22.6027 23.1373 22.048V8.832C23.1373 8.27733 23.3186 7.81867 23.6813 7.456C24.0439 7.072 24.5026 6.88 25.0573 6.88C25.6119 6.88 26.0706 7.072 26.4333 7.456C26.7959 7.81867 26.9773 8.27733 26.9773 8.832V22.048ZM25.0253 4.8C24.2999 4.8 23.7879 4.68267 23.4893 4.448C23.1906 4.21333 23.0413 3.79733 23.0413 3.2V2.592C23.0413 1.99467 23.2013 1.57867 23.5213 1.344C23.8413 1.10933 24.3533 0.991999 25.0573 0.991999C25.8039 0.991999 26.3266 1.10933 26.6253 1.344C26.9239 1.57867 27.0733 1.99467 27.0733 2.592V3.2C27.0733 3.81867 26.9133 4.24533 26.5933 4.48C26.2946 4.69333 25.7719 4.8 25.0253 4.8ZM39.1798 20.384C39.4784 20.384 39.7451 20.5333 39.9798 20.832C40.2358 21.1093 40.3638 21.4827 40.3638 21.952C40.3638 22.528 40.0438 23.0187 39.4038 23.424C38.7851 23.808 38.0811 24 37.2917 24C35.9691 24 34.8491 23.7227 33.9318 23.168C33.0358 22.592 32.5878 21.3867 32.5878 19.552V10.72H31.1158C30.6038 10.72 30.1771 10.5493 29.8358 10.208C29.4944 9.86667 29.3238 9.44 29.3238 8.928C29.3238 8.43733 29.4944 8.032 29.8358 7.712C30.1771 7.37067 30.6038 7.2 31.1158 7.2H32.5878V5.152C32.5878 4.59733 32.7691 4.13867 33.1318 3.776C33.5158 3.392 33.9851 3.2 34.5398 3.2C35.0731 3.2 35.5211 3.392 35.8838 3.776C36.2464 4.13867 36.4278 4.59733 36.4278 5.152V7.2H38.6998C39.2118 7.2 39.6384 7.37067 39.9798 7.712C40.3211 8.05333 40.4918 8.48 40.4918 8.992C40.4918 9.48267 40.3211 9.89867 39.9798 10.24C39.6384 10.56 39.2118 10.72 38.6998 10.72H36.4278V19.392C36.4278 19.84 36.5451 20.1707 36.7798 20.384C37.0144 20.576 37.3344 20.672 37.7398 20.672C37.9104 20.672 38.1451 20.6293 38.4438 20.544C38.6998 20.4373 38.9451 20.384 39.1798 20.384ZM53.0095 6.56C55.1215 6.56 56.5828 7.21067 57.3935 8.512C58.2042 9.792 58.6095 11.5733 58.6095 13.856V22.048C58.6095 22.6027 58.4282 23.072 58.0655 23.456C57.7028 23.8187 57.2442 24 56.6895 24C56.1348 24 55.6762 23.8187 55.3135 23.456C54.9508 23.072 54.7695 22.6027 54.7695 22.048V13.856C54.7695 12.6827 54.5348 11.7653 54.0655 11.104C53.6175 10.4213 52.8175 10.08 51.6655 10.08C50.4708 10.08 49.5322 10.4427 48.8495 11.168C48.1882 11.872 47.8575 12.768 47.8575 13.856V22.048C47.8575 22.6027 47.6762 23.072 47.3135 23.456C46.9508 23.8187 46.4922 24 45.9375 24C45.3828 24 44.9242 23.8187 44.5615 23.456C44.1988 23.072 44.0175 22.6027 44.0175 22.048V2.272C44.0175 1.71733 44.1988 1.25867 44.5615 0.895998C44.9242 0.511999 45.3828 0.32 45.9375 0.32C46.4922 0.32 46.9508 0.511999 47.3135 0.895998C47.6762 1.25867 47.8575 1.71733 47.8575 2.272V9.344C48.4335 8.576 49.1588 7.92533 50.0335 7.392C50.9295 6.83733 51.9215 6.56 53.0095 6.56ZM75.4715 6.88C76.0262 6.88 76.4848 7.072 76.8475 7.456C77.2102 7.81867 77.3915 8.27733 77.3915 8.832V16.96C77.3915 19.264 76.7515 21.0667 75.4715 22.368C74.2128 23.6693 72.4102 24.32 70.0635 24.32C67.7168 24.32 65.9142 23.6693 64.6555 22.368C63.3968 21.0667 62.7675 19.264 62.7675 16.96V8.832C62.7675 8.27733 62.9488 7.81867 63.3115 7.456C63.6742 7.072 64.1328 6.88 64.6875 6.88C65.2422 6.88 65.7008 7.072 66.0635 7.456C66.4262 7.81867 66.6075 8.27733 66.6075 8.832V16.96C66.6075 18.2613 66.8955 19.232 67.4715 19.872C68.0475 20.4907 68.9115 20.8 70.0635 20.8C71.2368 20.8 72.1115 20.4907 72.6875 19.872C73.2635 19.232 73.5515 18.2613 73.5515 16.96V8.832C73.5515 8.27733 73.7328 7.81867 74.0955 7.456C74.4582 7.072 74.9168 6.88 75.4715 6.88ZM90.4128 6.56C91.8848 6.56 93.2181 6.944 94.4128 7.712C95.6074 8.45867 96.5461 9.504 97.2288 10.848C97.9328 12.192 98.2847 13.7173 98.2847 15.424C98.2847 17.1307 97.9434 18.6667 97.2608 20.032C96.5781 21.376 95.6394 22.432 94.4448 23.2C93.2714 23.9467 91.9701 24.32 90.5408 24.32C89.5168 24.32 88.5461 24.1173 87.6288 23.712C86.7328 23.2853 85.9861 22.7733 85.3888 22.176V22.368C85.3888 22.9227 85.2074 23.392 84.8448 23.776C84.4821 24.1387 84.0234 24.32 83.4688 24.32C82.9141 24.32 82.4554 24.1387 82.0928 23.776C81.7301 23.4133 81.5488 22.944 81.5488 22.368V2.272C81.5488 1.71733 81.7301 1.25867 82.0928 0.895998C82.4554 0.511999 82.9141 0.32 83.4688 0.32C84.0234 0.32 84.4821 0.511999 84.8448 0.895998C85.2074 1.25867 85.3888 1.71733 85.3888 2.272V8.96C85.9008 8.32 86.6154 7.76533 87.5328 7.296C88.4501 6.80533 89.4101 6.56 90.4128 6.56ZM89.9328 20.8C91.2981 20.8 92.4181 20.288 93.2928 19.264C94.1674 18.24 94.6048 16.96 94.6048 15.424C94.6048 13.888 94.1674 12.6187 93.2928 11.616C92.4394 10.592 91.3194 10.08 89.9328 10.08C88.5461 10.08 87.4154 10.592 86.5408 11.616C85.6661 12.6187 85.2288 13.888 85.2288 15.424C85.2288 16.96 85.6661 18.24 86.5408 19.264C87.4154 20.288 88.5461 20.8 89.9328 20.8Z" fill="#EC9B69"/>
<path d="M109.006 24.32C107.47 24.32 106.105 24.128 104.91 23.744C103.716 23.36 102.596 22.7093 101.55 21.792C100.974 21.28 100.686 20.7147 100.686 20.096C100.686 19.6053 100.868 19.1787 101.23 18.816C101.593 18.432 102.03 18.24 102.542 18.24C102.948 18.24 103.31 18.368 103.63 18.624C104.484 19.328 105.316 19.84 106.126 20.16C106.937 20.48 107.897 20.64 109.006 20.64C110.201 20.64 111.225 20.3733 112.078 19.84C112.953 19.3067 113.39 18.6453 113.39 17.856C113.39 16.896 112.964 16.1493 112.11 15.616C111.257 15.0613 109.902 14.6453 108.046 14.368C103.374 13.6853 101.038 11.5093 101.038 7.84C101.038 6.496 101.39 5.33333 102.094 4.352C102.798 3.34933 103.758 2.592 104.974 2.08C106.19 1.54667 107.545 1.28 109.038 1.28C110.382 1.28 111.641 1.48267 112.814 1.888C114.009 2.29333 115.001 2.82667 115.79 3.488C116.409 3.97867 116.718 4.544 116.718 5.184C116.718 5.67467 116.537 6.112 116.174 6.496C115.812 6.85867 115.385 7.04 114.894 7.04C114.574 7.04 114.286 6.944 114.03 6.752C113.476 6.304 112.697 5.89867 111.694 5.536C110.713 5.152 109.828 4.96 109.038 4.96C107.694 4.96 106.649 5.216 105.902 5.728C105.177 6.21867 104.814 6.86933 104.814 7.68C104.814 8.59733 105.188 9.29067 105.934 9.76C106.702 10.2293 107.897 10.6133 109.518 10.912C111.353 11.232 112.814 11.648 113.902 12.16C115.012 12.6507 115.844 13.3333 116.398 14.208C116.953 15.0613 117.23 16.2027 117.23 17.632C117.23 18.976 116.846 20.16 116.078 21.184C115.332 22.1867 114.329 22.9653 113.07 23.52C111.812 24.0533 110.457 24.32 109.006 24.32ZM135.94 15.04C135.919 15.552 135.716 15.968 135.332 16.288C134.948 16.608 134.5 16.768 133.988 16.768H123.428C123.684 18.0267 124.271 19.0187 125.188 19.744C126.105 20.448 127.14 20.8 128.292 20.8C129.167 20.8 129.849 20.7253 130.34 20.576C130.831 20.4053 131.215 20.2347 131.492 20.064C131.791 19.872 131.993 19.744 132.1 19.68C132.484 19.488 132.847 19.392 133.188 19.392C133.636 19.392 134.02 19.552 134.34 19.872C134.66 20.192 134.82 20.5653 134.82 20.992C134.82 21.568 134.521 22.0907 133.924 22.56C133.327 23.0507 132.527 23.4667 131.524 23.808C130.521 24.1493 129.508 24.32 128.484 24.32C126.692 24.32 125.124 23.9467 123.78 23.2C122.457 22.4533 121.433 21.4293 120.708 20.128C119.983 18.8053 119.62 17.3227 119.62 15.68C119.62 13.8453 120.004 12.2347 120.772 10.848C121.54 9.46133 122.553 8.40533 123.812 7.68C125.071 6.93333 126.415 6.56 127.844 6.56C129.252 6.56 130.575 6.944 131.812 7.712C133.071 8.48 134.073 9.51467 134.82 10.816C135.567 12.1173 135.94 13.5253 135.94 15.04ZM127.844 10.08C125.369 10.08 123.908 11.2427 123.46 13.568H131.844V13.344C131.759 12.448 131.321 11.68 130.532 11.04C129.743 10.4 128.847 10.08 127.844 10.08ZM153.124 6.56C153.678 6.56 154.137 6.74133 154.5 7.104C154.862 7.46667 155.044 7.936 155.044 8.512V22.048C155.044 22.6027 154.862 23.072 154.5 23.456C154.137 23.8187 153.678 24 153.124 24C152.569 24 152.11 23.8187 151.748 23.456C151.406 23.0933 151.225 22.6347 151.204 22.08C150.67 22.6987 149.945 23.232 149.028 23.68C148.132 24.1067 147.182 24.32 146.18 24.32C144.708 24.32 143.374 23.9467 142.18 23.2C140.985 22.432 140.036 21.376 139.332 20.032C138.649 18.688 138.308 17.1627 138.308 15.456C138.308 13.7493 138.649 12.224 139.332 10.88C140.014 9.51467 140.942 8.45867 142.116 7.712C143.31 6.944 144.622 6.56 146.052 6.56C147.076 6.56 148.036 6.752 148.932 7.136C149.828 7.49867 150.585 7.968 151.204 8.544V8.512C151.204 7.95733 151.385 7.49867 151.748 7.136C152.11 6.752 152.569 6.56 153.124 6.56ZM146.66 20.8C148.046 20.8 149.177 20.2987 150.052 19.296C150.926 18.272 151.364 16.992 151.364 15.456C151.364 13.92 150.926 12.64 150.052 11.616C149.177 10.592 148.046 10.08 146.66 10.08C145.294 10.08 144.174 10.592 143.3 11.616C142.425 12.64 141.988 13.92 141.988 15.456C141.988 16.992 142.414 18.272 143.268 19.296C144.142 20.2987 145.273 20.8 146.66 20.8ZM168.101 6.56C168.741 6.56 169.274 6.74133 169.701 7.104C170.149 7.46667 170.373 7.89333 170.373 8.384C170.373 9.04533 170.202 9.54667 169.861 9.888C169.52 10.208 169.114 10.368 168.645 10.368C168.325 10.368 167.962 10.2933 167.557 10.144C167.493 10.1227 167.344 10.08 167.109 10.016C166.896 9.952 166.661 9.92 166.405 9.92C165.85 9.92 165.317 10.0907 164.805 10.432C164.293 10.7733 163.866 11.296 163.525 12C163.205 12.6827 163.045 13.504 163.045 14.464V22.048C163.045 22.6027 162.864 23.072 162.501 23.456C162.138 23.8187 161.68 24 161.125 24C160.57 24 160.112 23.8187 159.749 23.456C159.386 23.072 159.205 22.6027 159.205 22.048V8.832C159.205 8.27733 159.386 7.81867 159.749 7.456C160.112 7.072 160.57 6.88 161.125 6.88C161.68 6.88 162.138 7.072 162.501 7.456C162.864 7.81867 163.045 8.27733 163.045 8.832V9.248C163.536 8.37333 164.24 7.712 165.157 7.264C166.074 6.79467 167.056 6.56 168.101 6.56ZM179.817 6.56C181.631 6.56 183.092 6.848 184.201 7.424C185.311 7.97867 185.865 8.72533 185.865 9.664C185.865 10.1333 185.727 10.5493 185.449 10.912C185.172 11.2533 184.809 11.424 184.361 11.424C184.02 11.424 183.743 11.3813 183.529 11.296C183.316 11.1893 183.103 11.0613 182.889 10.912C182.697 10.7413 182.505 10.6027 182.313 10.496C182.1 10.3893 181.78 10.2933 181.353 10.208C180.948 10.1227 180.617 10.08 180.361 10.08C178.761 10.08 177.503 10.5813 176.585 11.584C175.689 12.5653 175.241 13.856 175.241 15.456C175.241 16.992 175.7 18.272 176.617 19.296C177.535 20.2987 178.708 20.8 180.137 20.8C181.183 20.8 181.961 20.672 182.473 20.416C182.601 20.352 182.772 20.2453 182.985 20.096C183.22 19.9253 183.433 19.7973 183.625 19.712C183.817 19.6267 184.052 19.584 184.329 19.584C184.863 19.584 185.279 19.7547 185.577 20.096C185.897 20.4373 186.057 20.8747 186.057 21.408C186.057 21.92 185.759 22.4 185.161 22.848C184.564 23.296 183.775 23.6587 182.793 23.936C181.812 24.192 180.767 24.32 179.657 24.32C178.015 24.32 176.564 23.936 175.305 23.168C174.068 22.4 173.108 21.344 172.425 20C171.743 18.6347 171.401 17.12 171.401 15.456C171.401 13.728 171.753 12.192 172.457 10.848C173.183 9.504 174.185 8.45867 175.465 7.712C176.745 6.944 178.196 6.56 179.817 6.56ZM197.822 6.56C199.934 6.56 201.395 7.21067 202.206 8.512C203.017 9.792 203.422 11.5733 203.422 13.856V22.048C203.422 22.6027 203.241 23.072 202.878 23.456C202.515 23.8187 202.057 24 201.502 24C200.947 24 200.489 23.8187 200.126 23.456C199.763 23.072 199.582 22.6027 199.582 22.048V13.856C199.582 12.6827 199.347 11.7653 198.878 11.104C198.43 10.4213 197.63 10.08 196.478 10.08C195.283 10.08 194.345 10.4427 193.662 11.168C193.001 11.872 192.67 12.768 192.67 13.856V22.048C192.67 22.6027 192.489 23.072 192.126 23.456C191.763 23.8187 191.305 24 190.75 24C190.195 24 189.737 23.8187 189.374 23.456C189.011 23.072 188.83 22.6027 188.83 22.048V2.272C188.83 1.71733 189.011 1.25867 189.374 0.895998C189.737 0.511999 190.195 0.32 190.75 0.32C191.305 0.32 191.763 0.511999 192.126 0.895998C192.489 1.25867 192.67 1.71733 192.67 2.272V9.344C193.246 8.576 193.971 7.92533 194.846 7.392C195.742 6.83733 196.734 6.56 197.822 6.56Z" fill="#313131"/>
</svg>
