<svg width="628" height="720" viewBox="0 0 628 720" fill="none" xmlns="http://www.w3.org/2000/svg">
<path d="M70.7763 14.352C71.6083 14.352 72.2803 14.624 72.7923 15.168C73.3043 15.712 73.5603 16.416 73.5603 17.28V34.656C73.5603 37.312 73.0003 39.664 71.8803 41.712C70.7603 43.76 69.1923 45.36 67.1763 46.512C65.1603 47.664 62.8563 48.24 60.2643 48.24C57.6723 48.24 55.3523 47.664 53.3043 46.512C51.2883 45.36 49.7203 43.76 48.6003 41.712C47.4803 39.664 46.9203 37.312 46.9203 34.656V17.28C46.9203 16.448 47.2083 15.76 47.7843 15.216C48.3603 14.64 49.0963 14.352 49.9923 14.352C50.7603 14.352 51.4323 14.64 52.0083 15.216C52.5843 15.76 52.8723 16.448 52.8723 17.28V34.656C52.8723 36.192 53.2083 37.568 53.8803 38.784C54.5523 39.968 55.4483 40.88 56.5683 41.52C57.7203 42.16 58.9523 42.48 60.2643 42.48C61.6403 42.48 62.9203 42.16 64.1043 41.52C65.3203 40.88 66.2803 39.968 66.9843 38.784C67.7203 37.568 68.0883 36.192 68.0883 34.656V17.28C68.0883 16.416 68.3283 15.712 68.8083 15.168C69.2883 14.624 69.9443 14.352 70.7763 14.352ZM78.7961 44.016C78.5081 43.632 78.3641 43.152 78.3641 42.576C78.3641 41.744 78.7801 41.04 79.6121 40.464C80.0601 40.176 80.5241 40.032 81.0041 40.032C81.6761 40.032 82.3161 40.336 82.9241 40.944C83.8841 41.936 84.8761 42.672 85.9001 43.152C86.9561 43.632 88.2201 43.872 89.6921 43.872C92.1881 43.776 93.4361 42.832 93.4361 41.04C93.4361 40.112 93.0041 39.408 92.1401 38.928C91.3081 38.448 89.9961 37.968 88.2041 37.488C86.3481 36.976 84.8281 36.464 83.6441 35.952C82.4921 35.44 81.4841 34.672 80.6201 33.648C79.7881 32.592 79.3721 31.184 79.3721 29.424C79.3721 27.888 79.8041 26.56 80.6681 25.44C81.5641 24.288 82.7161 23.408 84.1241 22.8C85.5641 22.16 87.0841 21.84 88.6841 21.84C90.3161 21.84 91.9481 22.144 93.5801 22.752C95.2121 23.36 96.4921 24.256 97.4201 25.44C97.8361 25.952 98.0441 26.528 98.0441 27.168C98.0441 27.904 97.7401 28.512 97.1321 28.992C96.6841 29.344 96.1721 29.52 95.5961 29.52C94.8921 29.52 94.3161 29.296 93.8681 28.848C93.2921 28.144 92.5401 27.584 91.6121 27.168C90.7161 26.752 89.6921 26.544 88.5401 26.544C86.1081 26.544 84.8921 27.424 84.8921 29.184C84.8921 29.888 85.1161 30.464 85.5641 30.912C86.0121 31.328 86.5721 31.664 87.2441 31.92C87.9481 32.144 88.9241 32.432 90.1721 32.784C91.9001 33.264 93.3401 33.76 94.4921 34.272C95.6441 34.784 96.6201 35.568 97.4201 36.624C98.2201 37.68 98.6201 39.072 98.6201 40.8C98.6201 42.368 98.1561 43.744 97.2281 44.928C96.3001 46.08 95.1001 46.96 93.6281 47.568C92.1881 48.176 90.7001 48.48 89.1641 48.48C87.0521 48.48 85.0841 48.128 83.2601 47.424C81.4361 46.72 79.9481 45.584 78.7961 44.016ZM122.496 22.32C123.328 22.32 124.016 22.608 124.56 23.184C125.104 23.728 125.376 24.416 125.376 25.248V37.44C125.376 40.896 124.416 43.6 122.496 45.552C120.608 47.504 117.904 48.48 114.384 48.48C110.864 48.48 108.16 47.504 106.272 45.552C104.384 43.6 103.44 40.896 103.44 37.44V25.248C103.44 24.416 103.712 23.728 104.256 23.184C104.8 22.608 105.488 22.32 106.32 22.32C107.152 22.32 107.84 22.608 108.384 23.184C108.928 23.728 109.2 24.416 109.2 25.248V37.44C109.2 39.392 109.632 40.848 110.496 41.808C111.36 42.736 112.656 43.2 114.384 43.2C116.144 43.2 117.456 42.736 118.32 41.808C119.184 40.848 119.616 39.392 119.616 37.44V25.248C119.616 24.416 119.888 23.728 120.432 23.184C120.976 22.608 121.664 22.32 122.496 22.32ZM152.396 21.84C153.228 21.84 153.916 22.112 154.46 22.656C155.004 23.2 155.276 23.904 155.276 24.768V45.072C155.276 45.904 155.004 46.608 154.46 47.184C153.916 47.728 153.228 48 152.396 48C151.564 48 150.876 47.728 150.332 47.184C149.82 46.64 149.548 45.952 149.516 45.12C148.716 46.048 147.628 46.848 146.252 47.52C144.908 48.16 143.484 48.48 141.98 48.48C139.772 48.48 137.772 47.92 135.98 46.8C134.188 45.648 132.764 44.064 131.708 42.048C130.684 40.032 130.172 37.744 130.172 35.184C130.172 32.624 130.684 30.336 131.708 28.32C132.732 26.272 134.124 24.688 135.884 23.568C137.676 22.416 139.644 21.84 141.788 21.84C143.324 21.84 144.764 22.128 146.108 22.704C147.452 23.248 148.588 23.952 149.516 24.816V24.768C149.516 23.936 149.788 23.248 150.332 22.704C150.876 22.128 151.564 21.84 152.396 21.84ZM142.7 43.2C144.78 43.2 146.476 42.448 147.788 40.944C149.1 39.408 149.756 37.488 149.756 35.184C149.756 32.88 149.1 30.96 147.788 29.424C146.476 27.888 144.78 27.12 142.7 27.12C140.652 27.12 138.972 27.888 137.66 29.424C136.348 30.96 135.692 32.88 135.692 35.184C135.692 37.488 136.332 39.408 137.612 40.944C138.924 42.448 140.62 43.2 142.7 43.2ZM143.228 20.688C142.908 20.688 142.556 20.544 142.172 20.256C141.82 19.968 141.66 19.584 141.692 19.104C141.692 18.816 141.788 18.512 141.98 18.192L144.764 13.296C145.084 12.72 145.468 12.256 145.916 11.904C146.364 11.552 146.86 11.376 147.404 11.376C148.268 11.376 148.908 11.6 149.324 12.048C149.772 12.496 149.98 13.072 149.948 13.776C149.884 14.512 149.58 15.2 149.036 15.84L145.388 19.872C144.876 20.416 144.156 20.688 143.228 20.688ZM174.862 21.84C175.822 21.84 176.622 22.112 177.262 22.656C177.934 23.2 178.27 23.84 178.27 24.576C178.27 25.568 178.014 26.32 177.502 26.832C176.99 27.312 176.382 27.552 175.678 27.552C175.198 27.552 174.654 27.44 174.046 27.216C173.95 27.184 173.726 27.12 173.374 27.024C173.054 26.928 172.702 26.88 172.318 26.88C171.486 26.88 170.686 27.136 169.918 27.648C169.15 28.16 168.51 28.944 167.998 30C167.518 31.024 167.278 32.256 167.278 33.696V45.072C167.278 45.904 167.006 46.608 166.462 47.184C165.918 47.728 165.23 48 164.398 48C163.566 48 162.878 47.728 162.334 47.184C161.79 46.608 161.518 45.904 161.518 45.072V25.248C161.518 24.416 161.79 23.728 162.334 23.184C162.878 22.608 163.566 22.32 164.398 22.32C165.23 22.32 165.918 22.608 166.462 23.184C167.006 23.728 167.278 24.416 167.278 25.248V25.872C168.014 24.56 169.07 23.568 170.446 22.896C171.822 22.192 173.294 21.84 174.862 21.84ZM187.755 45.072C187.755 45.904 187.483 46.608 186.939 47.184C186.395 47.728 185.707 48 184.875 48C184.043 48 183.355 47.728 182.811 47.184C182.267 46.608 181.995 45.904 181.995 45.072V25.248C181.995 24.416 182.267 23.728 182.811 23.184C183.355 22.608 184.043 22.32 184.875 22.32C185.707 22.32 186.395 22.608 186.939 23.184C187.483 23.728 187.755 24.416 187.755 25.248V45.072ZM184.827 19.2C183.739 19.2 182.971 19.024 182.523 18.672C182.075 18.32 181.851 17.696 181.851 16.8V15.888C181.851 14.992 182.091 14.368 182.571 14.016C183.051 13.664 183.819 13.488 184.875 13.488C185.995 13.488 186.779 13.664 187.227 14.016C187.675 14.368 187.899 14.992 187.899 15.888V16.8C187.899 17.728 187.659 18.368 187.179 18.72C186.731 19.04 185.947 19.2 184.827 19.2ZM218.347 35.184C218.347 37.744 217.771 40.048 216.619 42.096C215.467 44.112 213.883 45.68 211.867 46.8C209.883 47.92 207.691 48.48 205.291 48.48C202.859 48.48 200.651 47.92 198.667 46.8C196.683 45.68 195.115 44.112 193.963 42.096C192.811 40.048 192.235 37.744 192.235 35.184C192.235 32.624 192.811 30.336 193.963 28.32C195.115 26.272 196.683 24.688 198.667 23.568C200.651 22.416 202.859 21.84 205.291 21.84C207.691 21.84 209.883 22.416 211.867 23.568C213.883 24.688 215.467 26.272 216.619 28.32C217.771 30.336 218.347 32.624 218.347 35.184ZM212.587 35.184C212.587 33.616 212.251 32.224 211.579 31.008C210.939 29.76 210.059 28.8 208.939 28.128C207.851 27.456 206.635 27.12 205.291 27.12C203.947 27.12 202.715 27.456 201.595 28.128C200.507 28.8 199.627 29.76 198.955 31.008C198.315 32.224 197.995 33.616 197.995 35.184C197.995 36.752 198.315 38.144 198.955 39.36C199.627 40.576 200.507 41.52 201.595 42.192C202.715 42.864 203.947 43.2 205.291 43.2C206.635 43.2 207.851 42.864 208.939 42.192C210.059 41.52 210.939 40.576 211.579 39.36C212.251 38.144 212.587 36.752 212.587 35.184ZM250.34 21.84C253.604 21.84 255.86 22.816 257.108 24.768C258.356 26.688 258.98 29.36 258.98 32.784V45.072C258.98 45.904 258.708 46.608 258.164 47.184C257.62 47.728 256.932 48 256.1 48C255.268 48 254.58 47.728 254.036 47.184C253.492 46.608 253.22 45.904 253.22 45.072V32.784C253.22 31.024 252.852 29.648 252.116 28.656C251.38 27.632 250.116 27.12 248.324 27.12C246.468 27.12 245.012 27.664 243.956 28.752C242.9 29.808 242.372 31.152 242.372 32.784V45.072C242.372 45.904 242.1 46.608 241.556 47.184C241.012 47.728 240.324 48 239.492 48C238.66 48 237.972 47.728 237.428 47.184C236.884 46.608 236.612 45.904 236.612 45.072V25.248C236.612 24.416 236.884 23.728 237.428 23.184C237.972 22.608 238.66 22.32 239.492 22.32C240.324 22.32 241.012 22.608 241.556 23.184C242.1 23.728 242.372 24.416 242.372 25.248V26.064C243.236 24.912 244.356 23.92 245.732 23.088C247.14 22.256 248.676 21.84 250.34 21.84ZM285.99 21.84C286.822 21.84 287.51 22.112 288.054 22.656C288.598 23.2 288.87 23.904 288.87 24.768V45.072C288.87 45.904 288.598 46.608 288.054 47.184C287.51 47.728 286.822 48 285.99 48C285.158 48 284.47 47.728 283.926 47.184C283.414 46.64 283.142 45.952 283.11 45.12C282.31 46.048 281.222 46.848 279.846 47.52C278.502 48.16 277.078 48.48 275.574 48.48C273.366 48.48 271.366 47.92 269.574 46.8C267.782 45.648 266.358 44.064 265.302 42.048C264.278 40.032 263.766 37.744 263.766 35.184C263.766 32.624 264.278 30.336 265.302 28.32C266.326 26.272 267.718 24.688 269.478 23.568C271.27 22.416 273.238 21.84 275.382 21.84C276.918 21.84 278.358 22.128 279.702 22.704C281.046 23.248 282.182 23.952 283.11 24.816V24.768C283.11 23.936 283.382 23.248 283.926 22.704C284.47 22.128 285.158 21.84 285.99 21.84ZM276.294 43.2C278.374 43.2 280.07 42.448 281.382 40.944C282.694 39.408 283.35 37.488 283.35 35.184C283.35 32.88 282.694 30.96 281.382 29.424C280.07 27.888 278.374 27.12 276.294 27.12C274.246 27.12 272.566 27.888 271.254 29.424C269.942 30.96 269.286 32.88 269.286 35.184C269.286 37.488 269.926 39.408 271.206 40.944C272.518 42.448 274.214 43.2 276.294 43.2ZM270.15 19.68C269.414 19.68 268.79 19.392 268.278 18.816C267.766 18.208 267.51 17.408 267.51 16.416C267.51 15.296 268.022 14.32 269.046 13.488C270.07 12.624 271.526 12.192 273.414 12.192C274.246 12.192 274.998 12.368 275.67 12.72C276.374 13.04 277.174 13.504 278.07 14.112C278.614 14.528 279.062 14.832 279.414 15.024C279.798 15.216 280.15 15.312 280.47 15.312C280.822 15.312 281.094 15.216 281.286 15.024C281.478 14.832 281.526 14.592 281.43 14.304C281.366 14.144 281.334 13.92 281.334 13.632C281.334 13.12 281.494 12.72 281.814 12.432C282.166 12.112 282.598 11.952 283.11 11.952C283.846 11.952 284.47 12.24 284.982 12.816C285.494 13.392 285.75 14.16 285.75 15.12C285.75 15.728 285.558 16.368 285.174 17.04C284.79 17.712 284.182 18.288 283.35 18.768C282.55 19.216 281.526 19.44 280.278 19.44C279.638 19.44 278.966 19.28 278.262 18.96C277.558 18.64 276.726 18.192 275.766 17.616C274.998 17.168 274.39 16.848 273.942 16.656C273.526 16.432 273.142 16.32 272.79 16.32C272.438 16.32 272.166 16.416 271.974 16.608C271.782 16.8 271.734 17.04 271.83 17.328C271.894 17.488 271.926 17.712 271.926 18C271.926 18.512 271.75 18.928 271.398 19.248C271.078 19.536 270.662 19.68 270.15 19.68ZM319.784 35.184C319.784 37.744 319.208 40.048 318.056 42.096C316.904 44.112 315.32 45.68 313.304 46.8C311.32 47.92 309.128 48.48 306.728 48.48C304.296 48.48 302.088 47.92 300.104 46.8C298.12 45.68 296.552 44.112 295.4 42.096C294.248 40.048 293.672 37.744 293.672 35.184C293.672 32.624 294.248 30.336 295.4 28.32C296.552 26.272 298.12 24.688 300.104 23.568C302.088 22.416 304.296 21.84 306.728 21.84C309.128 21.84 311.32 22.416 313.304 23.568C315.32 24.688 316.904 26.272 318.056 28.32C319.208 30.336 319.784 32.624 319.784 35.184ZM314.024 35.184C314.024 33.616 313.688 32.224 313.016 31.008C312.376 29.76 311.496 28.8 310.376 28.128C309.288 27.456 308.072 27.12 306.728 27.12C305.384 27.12 304.152 27.456 303.032 28.128C301.944 28.8 301.064 29.76 300.392 31.008C299.752 32.224 299.432 33.616 299.432 35.184C299.432 36.752 299.752 38.144 300.392 39.36C301.064 40.576 301.944 41.52 303.032 42.192C304.152 42.864 305.384 43.2 306.728 43.2C308.072 43.2 309.288 42.864 310.376 42.192C311.496 41.52 312.376 40.576 313.016 39.36C313.688 38.144 314.024 36.752 314.024 35.184ZM361.09 34.56C361.058 35.328 360.754 35.952 360.178 36.432C359.602 36.912 358.93 37.152 358.162 37.152H342.322C342.706 39.04 343.586 40.528 344.962 41.616C346.338 42.672 347.89 43.2 349.618 43.2C350.93 43.2 351.954 43.088 352.69 42.864C353.426 42.608 354.002 42.352 354.418 42.096C354.866 41.808 355.17 41.616 355.33 41.52C355.906 41.232 356.45 41.088 356.962 41.088C357.634 41.088 358.21 41.328 358.69 41.808C359.17 42.288 359.41 42.848 359.41 43.488C359.41 44.352 358.962 45.136 358.066 45.84C357.17 46.576 355.97 47.2 354.466 47.712C352.962 48.224 351.442 48.48 349.906 48.48C347.218 48.48 344.866 47.92 342.85 46.8C340.866 45.68 339.33 44.144 338.242 42.192C337.154 40.208 336.61 37.984 336.61 35.52C336.61 32.768 337.186 30.352 338.338 28.272C339.49 26.192 341.01 24.608 342.898 23.52C344.786 22.4 346.802 21.84 348.946 21.84C351.058 21.84 353.042 22.416 354.898 23.568C356.786 24.72 358.29 26.272 359.41 28.224C360.53 30.176 361.09 32.288 361.09 34.56ZM348.946 27.12C345.234 27.12 343.042 28.864 342.37 32.352H354.946V32.016C354.818 30.672 354.162 29.52 352.978 28.56C351.794 27.6 350.45 27.12 348.946 27.12ZM379.621 21.84C382.885 21.84 385.141 22.816 386.389 24.768C387.637 26.688 388.261 29.36 388.261 32.784V45.072C388.261 45.904 387.989 46.608 387.445 47.184C386.901 47.728 386.213 48 385.381 48C384.549 48 383.861 47.728 383.317 47.184C382.773 46.608 382.501 45.904 382.501 45.072V32.784C382.501 31.024 382.133 29.648 381.397 28.656C380.661 27.632 379.397 27.12 377.605 27.12C375.749 27.12 374.293 27.664 373.237 28.752C372.181 29.808 371.653 31.152 371.653 32.784V45.072C371.653 45.904 371.381 46.608 370.837 47.184C370.293 47.728 369.605 48 368.773 48C367.941 48 367.253 47.728 366.709 47.184C366.165 46.608 365.893 45.904 365.893 45.072V25.248C365.893 24.416 366.165 23.728 366.709 23.184C367.253 22.608 367.941 22.32 368.773 22.32C369.605 22.32 370.293 22.608 370.837 23.184C371.381 23.728 371.653 24.416 371.653 25.248V26.064C372.517 24.912 373.637 23.92 375.013 23.088C376.421 22.256 377.957 21.84 379.621 21.84ZM405.671 21.84C408.391 21.84 410.583 22.272 412.247 23.136C413.911 23.968 414.743 25.088 414.743 26.496C414.743 27.2 414.535 27.824 414.119 28.368C413.703 28.88 413.159 29.136 412.487 29.136C411.975 29.136 411.559 29.072 411.239 28.944C410.919 28.784 410.599 28.592 410.279 28.368C409.991 28.112 409.703 27.904 409.415 27.744C409.095 27.584 408.615 27.44 407.975 27.312C407.367 27.184 406.871 27.12 406.487 27.12C404.087 27.12 402.199 27.872 400.823 29.376C399.479 30.848 398.807 32.784 398.807 35.184C398.807 37.488 399.495 39.408 400.871 40.944C402.247 42.448 404.007 43.2 406.151 43.2C407.719 43.2 408.887 43.008 409.655 42.624C409.847 42.528 410.103 42.368 410.423 42.144C410.775 41.888 411.095 41.696 411.383 41.568C411.671 41.44 412.023 41.376 412.439 41.376C413.239 41.376 413.863 41.632 414.311 42.144C414.791 42.656 415.031 43.312 415.031 44.112C415.031 44.88 414.583 45.6 413.687 46.272C412.791 46.944 411.607 47.488 410.135 47.904C408.663 48.288 407.095 48.48 405.431 48.48C402.967 48.48 400.791 47.904 398.903 46.752C397.047 45.6 395.607 44.016 394.583 42C393.559 39.952 393.047 37.68 393.047 35.184C393.047 32.592 393.575 30.288 394.631 28.272C395.719 26.256 397.223 24.688 399.143 23.568C401.063 22.416 403.239 21.84 405.671 21.84ZM443.862 35.184C443.862 37.744 443.286 40.048 442.134 42.096C440.982 44.112 439.398 45.68 437.382 46.8C435.398 47.92 433.206 48.48 430.806 48.48C428.374 48.48 426.166 47.92 424.182 46.8C422.198 45.68 420.63 44.112 419.478 42.096C418.326 40.048 417.75 37.744 417.75 35.184C417.75 32.624 418.326 30.336 419.478 28.32C420.63 26.272 422.198 24.688 424.182 23.568C426.166 22.416 428.374 21.84 430.806 21.84C433.206 21.84 435.398 22.416 437.382 23.568C439.398 24.688 440.982 26.272 442.134 28.32C443.286 30.336 443.862 32.624 443.862 35.184ZM438.102 35.184C438.102 33.616 437.766 32.224 437.094 31.008C436.454 29.76 435.574 28.8 434.454 28.128C433.366 27.456 432.15 27.12 430.806 27.12C429.462 27.12 428.23 27.456 427.11 28.128C426.022 28.8 425.142 29.76 424.47 31.008C423.83 32.224 423.51 33.616 423.51 35.184C423.51 36.752 423.83 38.144 424.47 39.36C425.142 40.576 426.022 41.52 427.11 42.192C428.23 42.864 429.462 43.2 430.806 43.2C432.15 43.2 433.366 42.864 434.454 42.192C435.574 41.52 436.454 40.576 437.094 39.36C437.766 38.144 438.102 36.752 438.102 35.184ZM462.403 21.84C465.667 21.84 467.923 22.816 469.171 24.768C470.419 26.688 471.043 29.36 471.043 32.784V45.072C471.043 45.904 470.771 46.608 470.227 47.184C469.683 47.728 468.995 48 468.163 48C467.331 48 466.643 47.728 466.099 47.184C465.555 46.608 465.283 45.904 465.283 45.072V32.784C465.283 31.024 464.915 29.648 464.179 28.656C463.443 27.632 462.179 27.12 460.387 27.12C458.531 27.12 457.075 27.664 456.019 28.752C454.963 29.808 454.435 31.152 454.435 32.784V45.072C454.435 45.904 454.163 46.608 453.619 47.184C453.075 47.728 452.387 48 451.555 48C450.723 48 450.035 47.728 449.491 47.184C448.947 46.608 448.675 45.904 448.675 45.072V25.248C448.675 24.416 448.947 23.728 449.491 23.184C450.035 22.608 450.723 22.32 451.555 22.32C452.387 22.32 453.075 22.608 453.619 23.184C454.163 23.728 454.435 24.416 454.435 25.248V26.064C455.299 24.912 456.419 23.92 457.795 23.088C459.203 22.256 460.739 21.84 462.403 21.84ZM489.652 42.576C490.1 42.576 490.5 42.8 490.852 43.248C491.236 43.664 491.428 44.224 491.428 44.928C491.428 45.792 490.948 46.528 489.988 47.136C489.06 47.712 488.004 48 486.82 48C484.836 48 483.156 47.584 481.78 46.752C480.436 45.888 479.764 44.08 479.764 41.328V28.08H477.556C476.788 28.08 476.148 27.824 475.636 27.312C475.124 26.8 474.868 26.16 474.868 25.392C474.868 24.656 475.124 24.048 475.636 23.568C476.148 23.056 476.788 22.8 477.556 22.8H479.764V19.728C479.764 18.896 480.036 18.208 480.58 17.664C481.156 17.088 481.86 16.8 482.692 16.8C483.492 16.8 484.164 17.088 484.708 17.664C485.252 18.208 485.524 18.896 485.524 19.728V22.8H488.932C489.7 22.8 490.34 23.056 490.852 23.568C491.364 24.08 491.62 24.72 491.62 25.488C491.62 26.224 491.364 26.848 490.852 27.36C490.34 27.84 489.7 28.08 488.932 28.08H485.524V41.088C485.524 41.76 485.7 42.256 486.052 42.576C486.404 42.864 486.884 43.008 487.492 43.008C487.748 43.008 488.1 42.944 488.548 42.816C488.932 42.656 489.3 42.576 489.652 42.576ZM510.253 21.84C511.213 21.84 512.013 22.112 512.653 22.656C513.325 23.2 513.661 23.84 513.661 24.576C513.661 25.568 513.405 26.32 512.893 26.832C512.381 27.312 511.773 27.552 511.069 27.552C510.589 27.552 510.045 27.44 509.437 27.216C509.341 27.184 509.117 27.12 508.765 27.024C508.445 26.928 508.093 26.88 507.709 26.88C506.877 26.88 506.077 27.136 505.309 27.648C504.541 28.16 503.901 28.944 503.389 30C502.909 31.024 502.669 32.256 502.669 33.696V45.072C502.669 45.904 502.397 46.608 501.853 47.184C501.309 47.728 500.621 48 499.789 48C498.957 48 498.269 47.728 497.725 47.184C497.181 46.608 496.909 45.904 496.909 45.072V25.248C496.909 24.416 497.181 23.728 497.725 23.184C498.269 22.608 498.957 22.32 499.789 22.32C500.621 22.32 501.309 22.608 501.853 23.184C502.397 23.728 502.669 24.416 502.669 25.248V25.872C503.405 24.56 504.461 23.568 505.837 22.896C507.213 22.192 508.685 21.84 510.253 21.84ZM537.943 21.84C538.775 21.84 539.463 22.112 540.007 22.656C540.551 23.2 540.823 23.904 540.823 24.768V45.072C540.823 45.904 540.551 46.608 540.007 47.184C539.463 47.728 538.775 48 537.943 48C537.111 48 536.423 47.728 535.879 47.184C535.367 46.64 535.095 45.952 535.063 45.12C534.263 46.048 533.175 46.848 531.799 47.52C530.455 48.16 529.031 48.48 527.527 48.48C525.319 48.48 523.319 47.92 521.527 46.8C519.735 45.648 518.311 44.064 517.255 42.048C516.231 40.032 515.719 37.744 515.719 35.184C515.719 32.624 516.231 30.336 517.255 28.32C518.279 26.272 519.671 24.688 521.431 23.568C523.223 22.416 525.191 21.84 527.335 21.84C528.871 21.84 530.311 22.128 531.655 22.704C532.999 23.248 534.135 23.952 535.063 24.816V24.768C535.063 23.936 535.335 23.248 535.879 22.704C536.423 22.128 537.111 21.84 537.943 21.84ZM528.247 43.2C530.327 43.2 532.023 42.448 533.335 40.944C534.647 39.408 535.303 37.488 535.303 35.184C535.303 32.88 534.647 30.96 533.335 29.424C532.023 27.888 530.327 27.12 528.247 27.12C526.199 27.12 524.519 27.888 523.207 29.424C521.895 30.96 521.239 32.88 521.239 35.184C521.239 37.488 521.879 39.408 523.159 40.944C524.471 42.448 526.167 43.2 528.247 43.2ZM563.638 29.232C562.71 29.232 561.99 28.992 561.478 28.512C560.998 28 560.758 27.28 560.758 26.352V25.536C560.758 24.608 560.998 23.904 561.478 23.424C561.99 22.912 562.71 22.656 563.638 22.656H564.262C565.19 22.656 565.894 22.912 566.374 23.424C566.886 23.904 567.142 24.608 567.142 25.536V26.352C567.142 27.28 566.886 28 566.374 28.512C565.894 28.992 565.19 29.232 564.262 29.232H563.638ZM563.638 48C562.71 48 561.99 47.76 561.478 47.28C560.998 46.768 560.758 46.048 560.758 45.12V44.304C560.758 43.376 560.998 42.672 561.478 42.192C561.99 41.68 562.71 41.424 563.638 41.424H564.262C565.19 41.424 565.894 41.68 566.374 42.192C566.886 42.672 567.142 43.376 567.142 44.304V45.12C567.142 46.048 566.886 46.768 566.374 47.28C565.894 47.76 565.19 48 564.262 48H563.638ZM584.539 56.736C584.059 56.736 583.627 56.608 583.243 56.352C579.595 53.92 576.795 50.912 574.843 47.328C572.923 43.712 571.963 39.792 571.963 35.568C571.963 31.344 572.923 27.44 574.843 23.856C576.795 20.24 579.595 17.216 583.243 14.784C583.627 14.528 584.059 14.4 584.539 14.4C585.243 14.4 585.819 14.672 586.267 15.216C586.715 15.76 586.939 16.32 586.939 16.896C586.939 17.632 586.603 18.272 585.931 18.816C583.211 20.928 581.163 23.424 579.787 26.304C578.443 29.184 577.771 32.272 577.771 35.568C577.771 38.928 578.443 42.08 579.787 45.024C581.131 47.936 583.179 50.368 585.931 52.32C586.603 52.8 586.939 53.44 586.939 54.24C586.939 54.848 586.699 55.408 586.219 55.92C585.739 56.464 585.179 56.736 584.539 56.736Z" fill="#EC9B69"/>
<path opacity="0.5" d="M167.711 71.6C168.799 71.6 169.833 71.9307 170.815 72.592C171.796 73.232 172.585 74.1067 173.183 75.216C173.78 76.304 174.079 77.4987 174.079 78.8C174.079 80.08 173.78 81.2747 173.183 82.384C172.585 83.4933 171.796 84.3787 170.815 85.04C169.833 85.68 168.799 86 167.711 86H162.143V92.048C162.143 92.624 161.972 93.0933 161.631 93.456C161.289 93.8187 160.841 94 160.286 94C159.753 94 159.316 93.8187 158.975 93.456C158.633 93.072 158.463 92.6027 158.463 92.048V73.552C158.463 72.9973 158.644 72.5387 159.007 72.176C159.391 71.792 159.86 71.6 160.415 71.6H167.711ZM167.711 82.352C168.116 82.352 168.511 82.1813 168.895 81.84C169.3 81.4987 169.62 81.0613 169.855 80.528C170.111 79.9733 170.239 79.3973 170.239 78.8C170.239 78.2027 170.111 77.6373 169.855 77.104C169.62 76.5493 169.3 76.112 168.895 75.792C168.511 75.4507 168.116 75.28 167.711 75.28H162.143V82.352H167.711ZM192.471 85.04C192.45 85.552 192.247 85.968 191.863 86.288C191.479 86.608 191.031 86.768 190.519 86.768H179.959C180.215 88.0267 180.802 89.0187 181.719 89.744C182.637 90.448 183.671 90.8 184.823 90.8C185.698 90.8 186.381 90.7253 186.871 90.576C187.362 90.4053 187.746 90.2347 188.023 90.064C188.322 89.872 188.525 89.744 188.631 89.68C189.015 89.488 189.378 89.392 189.719 89.392C190.167 89.392 190.551 89.552 190.871 89.872C191.191 90.192 191.351 90.5653 191.351 90.992C191.351 91.568 191.053 92.0907 190.455 92.56C189.858 93.0507 189.058 93.4667 188.055 93.808C187.053 94.1493 186.039 94.32 185.015 94.32C183.223 94.32 181.655 93.9467 180.311 93.2C178.989 92.4533 177.965 91.4293 177.239 90.128C176.514 88.8053 176.151 87.3227 176.151 85.68C176.151 83.8453 176.535 82.2347 177.303 80.848C178.071 79.4613 179.085 78.4053 180.343 77.68C181.602 76.9333 182.946 76.56 184.375 76.56C185.783 76.56 187.106 76.944 188.343 77.712C189.602 78.48 190.605 79.5147 191.351 80.816C192.098 82.1173 192.471 83.5253 192.471 85.04ZM184.375 80.08C181.901 80.08 180.439 81.2427 179.991 83.568H188.375V83.344C188.29 82.448 187.853 81.68 187.063 81.04C186.274 80.4 185.378 80.08 184.375 80.08ZM194.682 91.344C194.49 91.088 194.394 90.768 194.394 90.384C194.394 89.8293 194.671 89.36 195.226 88.976C195.524 88.784 195.834 88.688 196.154 88.688C196.602 88.688 197.028 88.8907 197.434 89.296C198.074 89.9573 198.735 90.448 199.418 90.768C200.122 91.088 200.964 91.248 201.946 91.248C203.61 91.184 204.442 90.5547 204.442 89.36C204.442 88.7413 204.154 88.272 203.578 87.952C203.023 87.632 202.148 87.312 200.954 86.992C199.716 86.6507 198.703 86.3093 197.914 85.968C197.146 85.6267 196.474 85.1147 195.898 84.432C195.343 83.728 195.066 82.7893 195.066 81.616C195.066 80.592 195.354 79.7067 195.93 78.96C196.527 78.192 197.295 77.6053 198.234 77.2C199.194 76.7733 200.207 76.56 201.274 76.56C202.362 76.56 203.45 76.7627 204.538 77.168C205.626 77.5733 206.479 78.1707 207.098 78.96C207.375 79.3013 207.514 79.6853 207.514 80.112C207.514 80.6027 207.311 81.008 206.906 81.328C206.607 81.5627 206.266 81.68 205.882 81.68C205.412 81.68 205.028 81.5307 204.73 81.232C204.346 80.7627 203.844 80.3893 203.226 80.112C202.628 79.8347 201.946 79.696 201.178 79.696C199.556 79.696 198.746 80.2827 198.746 81.456C198.746 81.9253 198.895 82.3093 199.194 82.608C199.492 82.8853 199.866 83.1093 200.314 83.28C200.783 83.4293 201.434 83.6213 202.266 83.856C203.418 84.176 204.378 84.5067 205.146 84.848C205.914 85.1893 206.564 85.712 207.098 86.416C207.631 87.12 207.898 88.048 207.898 89.2C207.898 90.2453 207.588 91.1627 206.97 91.952C206.351 92.72 205.551 93.3067 204.57 93.712C203.61 94.1173 202.618 94.32 201.594 94.32C200.186 94.32 198.874 94.0853 197.658 93.616C196.442 93.1467 195.45 92.3893 194.682 91.344ZM224.967 76.88C225.522 76.88 225.981 77.0613 226.343 77.424C226.706 77.7867 226.887 78.256 226.887 78.832V98.448C226.887 99.0027 226.706 99.4613 226.343 99.824C225.981 100.208 225.522 100.4 224.967 100.4C224.413 100.4 223.954 100.208 223.591 99.824C223.229 99.4613 223.047 99.0027 223.047 98.448V92.112C222.514 92.7093 221.789 93.232 220.871 93.68C219.975 94.1067 219.026 94.32 218.023 94.32C216.551 94.32 215.218 93.9467 214.023 93.2C212.829 92.432 211.879 91.376 211.175 90.032C210.493 88.688 210.151 87.1627 210.151 85.456C210.151 83.7493 210.493 82.224 211.175 80.88C211.858 79.5147 212.786 78.4587 213.959 77.712C215.154 76.944 216.466 76.56 217.895 76.56C218.941 76.56 219.911 76.752 220.807 77.136C221.703 77.52 222.45 78 223.047 78.576C223.111 78.0853 223.314 77.68 223.655 77.36C224.018 77.04 224.455 76.88 224.967 76.88ZM218.503 90.8C219.89 90.8 221.021 90.2987 221.895 89.296C222.77 88.272 223.207 86.992 223.207 85.456C223.207 83.92 222.77 82.64 221.895 81.616C221.021 80.592 219.89 80.08 218.503 80.08C217.138 80.08 216.018 80.592 215.143 81.616C214.269 82.64 213.831 83.92 213.831 85.456C213.831 86.992 214.258 88.272 215.111 89.296C215.986 90.2987 217.117 90.8 218.503 90.8ZM243.753 76.88C244.307 76.88 244.766 77.072 245.129 77.456C245.491 77.8187 245.673 78.2773 245.673 78.832V86.96C245.673 89.264 245.033 91.0667 243.753 92.368C242.494 93.6693 240.691 94.32 238.345 94.32C235.998 94.32 234.195 93.6693 232.937 92.368C231.678 91.0667 231.049 89.264 231.049 86.96V78.832C231.049 78.2773 231.23 77.8187 231.593 77.456C231.955 77.072 232.414 76.88 232.969 76.88C233.523 76.88 233.982 77.072 234.345 77.456C234.707 77.8187 234.889 78.2773 234.889 78.832V86.96C234.889 88.2613 235.177 89.232 235.753 89.872C236.329 90.4907 237.193 90.8 238.345 90.8C239.518 90.8 240.393 90.4907 240.969 89.872C241.545 89.232 241.833 88.2613 241.833 86.96V78.832C241.833 78.2773 242.014 77.8187 242.377 77.456C242.739 77.072 243.198 76.88 243.753 76.88ZM253.446 92.048C253.446 92.6027 253.265 93.072 252.902 93.456C252.539 93.8187 252.081 94 251.526 94C250.971 94 250.513 93.8187 250.15 93.456C249.787 93.072 249.606 92.6027 249.606 92.048V78.832C249.606 78.2773 249.787 77.8187 250.15 77.456C250.513 77.072 250.971 76.88 251.526 76.88C252.081 76.88 252.539 77.072 252.902 77.456C253.265 77.8187 253.446 78.2773 253.446 78.832V92.048ZM251.494 74.8C250.769 74.8 250.257 74.6827 249.958 74.448C249.659 74.2133 249.51 73.7973 249.51 73.2V72.592C249.51 71.9947 249.67 71.5787 249.99 71.344C250.31 71.1093 250.822 70.992 251.526 70.992C252.273 70.992 252.795 71.1093 253.094 71.344C253.393 71.5787 253.542 71.9947 253.542 72.592V73.2C253.542 73.8187 253.382 74.2453 253.062 74.48C252.763 74.6933 252.241 74.8 251.494 74.8ZM256.401 91.344C256.209 91.088 256.113 90.768 256.113 90.384C256.113 89.8293 256.39 89.36 256.945 88.976C257.243 88.784 257.553 88.688 257.873 88.688C258.321 88.688 258.747 88.8907 259.153 89.296C259.793 89.9573 260.454 90.448 261.137 90.768C261.841 91.088 262.683 91.248 263.665 91.248C265.329 91.184 266.161 90.5547 266.161 89.36C266.161 88.7413 265.873 88.272 265.297 87.952C264.742 87.632 263.867 87.312 262.673 86.992C261.435 86.6507 260.422 86.3093 259.633 85.968C258.865 85.6267 258.193 85.1147 257.617 84.432C257.062 83.728 256.785 82.7893 256.785 81.616C256.785 80.592 257.073 79.7067 257.649 78.96C258.246 78.192 259.014 77.6053 259.953 77.2C260.913 76.7733 261.926 76.56 262.993 76.56C264.081 76.56 265.169 76.7627 266.257 77.168C267.345 77.5733 268.198 78.1707 268.817 78.96C269.094 79.3013 269.233 79.6853 269.233 80.112C269.233 80.6027 269.03 81.008 268.625 81.328C268.326 81.5627 267.985 81.68 267.601 81.68C267.131 81.68 266.747 81.5307 266.449 81.232C266.065 80.7627 265.563 80.3893 264.945 80.112C264.347 79.8347 263.665 79.696 262.897 79.696C261.275 79.696 260.465 80.2827 260.465 81.456C260.465 81.9253 260.614 82.3093 260.913 82.608C261.211 82.8853 261.585 83.1093 262.033 83.28C262.502 83.4293 263.153 83.6213 263.985 83.856C265.137 84.176 266.097 84.5067 266.865 84.848C267.633 85.1893 268.283 85.712 268.817 86.416C269.35 87.12 269.617 88.048 269.617 89.2C269.617 90.2453 269.307 91.1627 268.689 91.952C268.07 92.72 267.27 93.3067 266.289 93.712C265.329 94.1173 264.337 94.32 263.312 94.32C261.905 94.32 260.593 94.0853 259.377 93.616C258.161 93.1467 257.169 92.3893 256.401 91.344ZM286.936 76.56C287.491 76.56 287.949 76.7413 288.312 77.104C288.675 77.4667 288.856 77.936 288.856 78.512V92.048C288.856 92.6027 288.675 93.072 288.312 93.456C287.949 93.8187 287.491 94 286.936 94C286.381 94 285.923 93.8187 285.56 93.456C285.219 93.0933 285.037 92.6347 285.016 92.08C284.483 92.6987 283.757 93.232 282.84 93.68C281.944 94.1067 280.995 94.32 279.992 94.32C278.52 94.32 277.187 93.9467 275.992 93.2C274.797 92.432 273.848 91.376 273.144 90.032C272.461 88.688 272.12 87.1627 272.12 85.456C272.12 83.7493 272.461 82.224 273.144 80.88C273.827 79.5147 274.755 78.4587 275.928 77.712C277.123 76.944 278.435 76.56 279.864 76.56C280.888 76.56 281.848 76.752 282.744 77.136C283.64 77.4987 284.397 77.968 285.016 78.544V78.512C285.016 77.9573 285.197 77.4987 285.56 77.136C285.923 76.752 286.381 76.56 286.936 76.56ZM280.472 90.8C281.859 90.8 282.989 90.2987 283.864 89.296C284.739 88.272 285.176 86.992 285.176 85.456C285.176 83.92 284.739 82.64 283.864 81.616C282.989 80.592 281.859 80.08 280.472 80.08C279.107 80.08 277.987 80.592 277.112 81.616C276.237 82.64 275.8 83.92 275.8 85.456C275.8 86.992 276.227 88.272 277.08 89.296C277.955 90.2987 279.085 90.8 280.472 90.8ZM311.138 76.56C313.314 76.56 314.818 77.2107 315.65 78.512C316.482 79.792 316.898 81.5733 316.898 83.856V92.048C316.898 92.6027 316.717 93.072 316.354 93.456C315.992 93.8187 315.533 94 314.978 94C314.424 94 313.965 93.8187 313.602 93.456C313.24 93.072 313.058 92.6027 313.058 92.048V83.856C313.058 82.6827 312.813 81.7653 312.322 81.104C311.832 80.4213 310.989 80.08 309.794 80.08C308.557 80.08 307.586 80.4427 306.882 81.168C306.178 81.872 305.826 82.768 305.826 83.856V92.048C305.826 92.6027 305.645 93.072 305.282 93.456C304.92 93.8187 304.461 94 303.906 94C303.352 94 302.893 93.8187 302.53 93.456C302.168 93.072 301.986 92.6027 301.986 92.048V78.832C301.986 78.2773 302.168 77.8187 302.53 77.456C302.893 77.072 303.352 76.88 303.906 76.88C304.461 76.88 304.92 77.072 305.282 77.456C305.645 77.8187 305.826 78.2773 305.826 78.832V79.376C306.402 78.608 307.149 77.9467 308.066 77.392C309.005 76.8373 310.029 76.56 311.138 76.56ZM337.497 85.456C337.497 87.1627 337.113 88.6987 336.345 90.064C335.577 91.408 334.521 92.4533 333.177 93.2C331.854 93.9467 330.393 94.32 328.793 94.32C327.171 94.32 325.699 93.9467 324.377 93.2C323.054 92.4533 322.009 91.408 321.241 90.064C320.473 88.6987 320.089 87.1627 320.089 85.456C320.089 83.7493 320.473 82.224 321.241 80.88C322.009 79.5147 323.054 78.4587 324.377 77.712C325.699 76.944 327.171 76.56 328.793 76.56C330.393 76.56 331.854 76.944 333.177 77.712C334.521 78.4587 335.577 79.5147 336.345 80.88C337.113 82.224 337.497 83.7493 337.497 85.456ZM333.657 85.456C333.657 84.4107 333.433 83.4827 332.985 82.672C332.558 81.84 331.971 81.2 331.225 80.752C330.499 80.304 329.689 80.08 328.793 80.08C327.897 80.08 327.075 80.304 326.329 80.752C325.603 81.2 325.017 81.84 324.569 82.672C324.142 83.4827 323.929 84.4107 323.929 85.456C323.929 86.5013 324.142 87.4293 324.569 88.24C325.017 89.0507 325.603 89.68 326.329 90.128C327.075 90.576 327.897 90.8 328.793 90.8C329.689 90.8 330.499 90.576 331.225 90.128C331.971 89.68 332.558 89.0507 332.985 88.24C333.433 87.4293 333.657 86.5013 333.657 85.456ZM353.701 76.912C354.213 76.912 354.639 77.0827 354.981 77.424C355.322 77.744 355.493 78.1493 355.493 78.64C355.493 78.896 355.407 79.216 355.237 79.6L349.253 92.784C349.103 93.1467 348.879 93.4347 348.581 93.648C348.303 93.8613 347.983 93.9787 347.621 94L347.333 94.032C346.97 94.032 346.629 93.9253 346.309 93.712C346.01 93.4773 345.775 93.168 345.605 92.784L339.653 79.6C339.503 79.2587 339.429 78.9173 339.429 78.576C339.429 78.1493 339.61 77.7653 339.973 77.424C340.335 77.0613 340.783 76.88 341.317 76.88C341.722 76.88 342.095 76.9867 342.437 77.2C342.778 77.4133 343.034 77.712 343.205 78.096L347.621 88.208L352.005 78.128C352.175 77.7227 352.41 77.4133 352.709 77.2C353.007 76.9867 353.338 76.8907 353.701 76.912ZM372.311 76.56C372.866 76.56 373.324 76.7413 373.687 77.104C374.05 77.4667 374.231 77.936 374.231 78.512V92.048C374.231 92.6027 374.05 93.072 373.687 93.456C373.324 93.8187 372.866 94 372.311 94C371.756 94 371.298 93.8187 370.935 93.456C370.594 93.0933 370.412 92.6347 370.391 92.08C369.858 92.6987 369.132 93.232 368.215 93.68C367.319 94.1067 366.37 94.32 365.367 94.32C363.895 94.32 362.562 93.9467 361.367 93.2C360.172 92.432 359.223 91.376 358.519 90.032C357.836 88.688 357.495 87.1627 357.495 85.456C357.495 83.7493 357.836 82.224 358.519 80.88C359.202 79.5147 360.13 78.4587 361.303 77.712C362.498 76.944 363.81 76.56 365.239 76.56C366.263 76.56 367.223 76.752 368.119 77.136C369.015 77.4987 369.772 77.968 370.391 78.544V78.512C370.391 77.9573 370.572 77.4987 370.935 77.136C371.298 76.752 371.756 76.56 372.311 76.56ZM365.847 90.8C367.234 90.8 368.364 90.2987 369.239 89.296C370.114 88.272 370.551 86.992 370.551 85.456C370.551 83.92 370.114 82.64 369.239 81.616C368.364 80.592 367.234 80.08 365.847 80.08C364.482 80.08 363.362 80.592 362.487 81.616C361.612 82.64 361.175 83.92 361.175 85.456C361.175 86.992 361.602 88.272 362.455 89.296C363.33 90.2987 364.46 90.8 365.847 90.8ZM398.137 76.56C400.249 76.56 401.71 77.2107 402.521 78.512C403.331 79.792 403.737 81.5733 403.737 83.856V92.048C403.737 92.6027 403.555 93.072 403.193 93.456C402.83 93.8187 402.371 94 401.817 94C401.262 94 400.803 93.8187 400.441 93.456C400.078 93.072 399.897 92.6027 399.897 92.048V83.856C399.897 82.6827 399.662 81.7653 399.193 81.104C398.745 80.4213 397.945 80.08 396.793 80.08C395.598 80.08 394.659 80.4427 393.977 81.168C393.315 81.872 392.985 82.768 392.985 83.856V92.048C392.985 92.6027 392.803 93.072 392.441 93.456C392.078 93.8187 391.619 94 391.065 94C390.51 94 390.051 93.8187 389.689 93.456C389.326 93.072 389.145 92.6027 389.145 92.048V83.856C389.145 82.6827 388.91 81.7653 388.441 81.104C387.993 80.4213 387.193 80.08 386.041 80.08C384.846 80.08 383.907 80.4427 383.225 81.168C382.563 81.872 382.233 82.768 382.233 83.856V92.048C382.233 92.6027 382.051 93.072 381.689 93.456C381.326 93.8187 380.867 94 380.312 94C379.758 94 379.299 93.8187 378.937 93.456C378.574 93.072 378.393 92.6027 378.393 92.048V78.832C378.393 78.2773 378.574 77.8187 378.937 77.456C379.299 77.072 379.758 76.88 380.312 76.88C380.867 76.88 381.326 77.072 381.689 77.456C382.051 77.8187 382.233 78.2773 382.233 78.832V79.344C382.809 78.576 383.534 77.9253 384.409 77.392C385.305 76.8373 386.297 76.56 387.385 76.56C390.073 76.56 391.79 77.7333 392.537 80.08C393.027 79.184 393.763 78.3733 394.745 77.648C395.747 76.9227 396.878 76.56 398.137 76.56ZM423.253 85.04C423.231 85.552 423.029 85.968 422.645 86.288C422.261 86.608 421.813 86.768 421.301 86.768H410.741C410.997 88.0267 411.583 89.0187 412.501 89.744C413.418 90.448 414.453 90.8 415.605 90.8C416.479 90.8 417.162 90.7253 417.653 90.576C418.143 90.4053 418.527 90.2347 418.805 90.064C419.103 89.872 419.306 89.744 419.413 89.68C419.797 89.488 420.159 89.392 420.501 89.392C420.949 89.392 421.333 89.552 421.653 89.872C421.973 90.192 422.133 90.5653 422.133 90.992C422.133 91.568 421.834 92.0907 421.237 92.56C420.639 93.0507 419.839 93.4667 418.837 93.808C417.834 94.1493 416.821 94.32 415.797 94.32C414.005 94.32 412.437 93.9467 411.093 93.2C409.77 92.4533 408.746 91.4293 408.021 90.128C407.295 88.8053 406.933 87.3227 406.933 85.68C406.933 83.8453 407.317 82.2347 408.085 80.848C408.853 79.4613 409.866 78.4053 411.125 77.68C412.383 76.9333 413.727 76.56 415.157 76.56C416.565 76.56 417.887 76.944 419.125 77.712C420.383 78.48 421.386 79.5147 422.133 80.816C422.879 82.1173 423.253 83.5253 423.253 85.04ZM415.157 80.08C412.682 80.08 411.221 81.2427 410.773 83.568H419.157V83.344C419.071 82.448 418.634 81.68 417.845 81.04C417.055 80.4 416.159 80.08 415.157 80.08ZM435.607 76.56C437.783 76.56 439.287 77.2107 440.119 78.512C440.951 79.792 441.367 81.5733 441.367 83.856V92.048C441.367 92.6027 441.186 93.072 440.823 93.456C440.46 93.8187 440.002 94 439.447 94C438.892 94 438.434 93.8187 438.071 93.456C437.708 93.072 437.527 92.6027 437.527 92.048V83.856C437.527 82.6827 437.282 81.7653 436.791 81.104C436.3 80.4213 435.458 80.08 434.263 80.08C433.026 80.08 432.055 80.4427 431.351 81.168C430.647 81.872 430.295 82.768 430.295 83.856V92.048C430.295 92.6027 430.114 93.072 429.751 93.456C429.388 93.8187 428.93 94 428.375 94C427.82 94 427.362 93.8187 426.999 93.456C426.636 93.072 426.455 92.6027 426.455 92.048V78.832C426.455 78.2773 426.636 77.8187 426.999 77.456C427.362 77.072 427.82 76.88 428.375 76.88C428.93 76.88 429.388 77.072 429.751 77.456C430.114 77.8187 430.295 78.2773 430.295 78.832V79.376C430.871 78.608 431.618 77.9467 432.535 77.392C433.474 76.8373 434.498 76.56 435.607 76.56ZM453.774 90.384C454.072 90.384 454.339 90.5333 454.574 90.832C454.83 91.1093 454.958 91.4827 454.958 91.952C454.958 92.528 454.638 93.0187 453.998 93.424C453.379 93.808 452.675 94 451.885 94C450.563 94 449.443 93.7227 448.526 93.168C447.63 92.592 447.182 91.3867 447.182 89.552V80.72H445.71C445.198 80.72 444.771 80.5493 444.43 80.208C444.088 79.8667 443.918 79.44 443.918 78.928C443.918 78.4373 444.088 78.032 444.43 77.712C444.771 77.3707 445.198 77.2 445.71 77.2H447.182V75.152C447.182 74.5973 447.363 74.1387 447.726 73.776C448.11 73.392 448.579 73.2 449.134 73.2C449.667 73.2 450.115 73.392 450.478 73.776C450.84 74.1387 451.022 74.5973 451.022 75.152V77.2H453.294C453.806 77.2 454.232 77.3707 454.574 77.712C454.915 78.0533 455.086 78.48 455.086 78.992C455.086 79.4827 454.915 79.8987 454.574 80.24C454.232 80.56 453.806 80.72 453.294 80.72H451.022V89.392C451.022 89.84 451.139 90.1707 451.374 90.384C451.608 90.576 451.928 90.672 452.334 90.672C452.504 90.672 452.739 90.6293 453.038 90.544C453.294 90.4373 453.539 90.384 453.774 90.384ZM473.815 85.04C473.794 85.552 473.591 85.968 473.207 86.288C472.823 86.608 472.375 86.768 471.863 86.768H461.303C461.559 88.0267 462.146 89.0187 463.063 89.744C463.98 90.448 465.015 90.8 466.167 90.8C467.042 90.8 467.724 90.7253 468.215 90.576C468.706 90.4053 469.09 90.2347 469.367 90.064C469.666 89.872 469.868 89.744 469.975 89.68C470.359 89.488 470.722 89.392 471.063 89.392C471.511 89.392 471.895 89.552 472.215 89.872C472.535 90.192 472.695 90.5653 472.695 90.992C472.695 91.568 472.396 92.0907 471.799 92.56C471.202 93.0507 470.402 93.4667 469.399 93.808C468.396 94.1493 467.383 94.32 466.359 94.32C464.567 94.32 462.999 93.9467 461.655 93.2C460.332 92.4533 459.308 91.4293 458.583 90.128C457.858 88.8053 457.495 87.3227 457.495 85.68C457.495 83.8453 457.879 82.2347 458.647 80.848C459.415 79.4613 460.428 78.4053 461.687 77.68C462.946 76.9333 464.29 76.56 465.719 76.56C467.127 76.56 468.45 76.944 469.687 77.712C470.946 78.48 471.948 79.5147 472.695 80.816C473.442 82.1173 473.815 83.5253 473.815 85.04ZM465.719 80.08C463.244 80.08 461.783 81.2427 461.335 83.568H469.719V83.344C469.634 82.448 469.196 81.68 468.407 81.04C467.618 80.4 466.722 80.08 465.719 80.08Z" fill="#313131"/>
<path opacity="0.07" d="M126.101 541.233C126.101 432.569 215.327 344.479 325.394 344.479C435.46 344.479 524.687 432.569 524.687 541.233" fill="#2A94F4"/>
<g opacity="0.2">
<g opacity="0.2">
<path opacity="0.2" d="M130.542 542.21C130.542 542.21 176.735 433.454 193.291 443.513C209.847 453.571 248.954 542.21 248.954 542.21H130.542Z" fill="#2A94F4"/>
</g>
</g>
<g opacity="0.2">
<g opacity="0.2">
<path opacity="0.2" d="M528.52 542.21C528.52 542.21 486.292 438.096 471.157 447.725C456.022 457.354 420.271 542.21 420.271 542.21H528.52Z" fill="#2A94F4"/>
</g>
</g>
<path d="M334.308 544.096H305.017C303.962 544.096 303.107 543.251 303.107 542.21C303.107 541.168 303.962 540.324 305.017 540.324H334.308C335.363 540.324 336.218 541.168 336.218 542.21C336.218 543.251 335.363 544.096 334.308 544.096Z" fill="#5E349D"/>
<path d="M317.833 394.989C317.833 395.694 317.253 396.266 316.539 396.266C315.825 396.266 315.246 395.694 315.246 394.989C315.246 394.284 315.825 393.712 316.539 393.712C317.253 393.712 317.833 394.284 317.833 394.989Z" fill="#D3D3D3"/>
<g opacity="0.4">
<path opacity="0.4" d="M526.83 342.361H394.628C390.075 342.361 386.35 338.683 386.35 334.188C386.35 329.693 390.075 326.016 394.628 326.016H526.83C531.383 326.016 535.108 329.693 535.108 334.188C535.108 338.683 531.383 342.361 526.83 342.361Z" fill="#D3D3D3"/>
</g>
<g opacity="0.4">
<path opacity="0.4" d="M233.839 320.537H153.846C149.293 320.537 145.568 316.86 145.568 312.365C145.568 307.87 149.293 304.192 153.846 304.192H233.839C238.392 304.192 242.117 307.87 242.117 312.365C242.117 316.86 238.392 320.537 233.839 320.537Z" fill="#D3D3D3"/>
</g>
<g opacity="0.4">
<path opacity="0.4" d="M491.423 312.366H411.431C406.878 312.366 403.153 308.688 403.153 304.193C403.153 299.698 406.878 296.021 411.431 296.021H491.423C495.976 296.021 499.701 299.698 499.701 304.193C499.701 308.687 495.976 312.366 491.423 312.366Z" fill="#D3D3D3"/>
</g>
<g opacity="0.4">
<path opacity="0.4" d="M161.923 350.533H81.9302C77.3772 350.533 73.6522 346.856 73.6522 342.361C73.6522 337.866 77.3772 334.188 81.9302 334.188H161.923C166.476 334.188 170.201 337.866 170.201 342.361C170.201 346.856 166.476 350.533 161.923 350.533Z" fill="#D3D3D3"/>
</g>
<g opacity="0.4">
<path opacity="0.4" d="M505.358 410H425.365C420.812 410 417.087 406.323 417.087 401.828C417.087 397.333 420.812 393.655 425.365 393.655H505.357C509.91 393.655 513.635 397.333 513.635 401.828C513.636 406.323 509.91 410 505.358 410Z" fill="#D3D3D3"/>
</g>
<g opacity="0.4">
<path opacity="0.4" d="M225.137 418.173H123.352C119.324 418.173 116.029 414.919 116.029 410.943V409.058C116.029 405.081 119.324 401.828 123.352 401.828H225.137C229.165 401.828 232.461 405.081 232.461 409.058V410.943C232.461 414.919 229.165 418.173 225.137 418.173Z" fill="#D3D3D3"/>
</g>
<path d="M570.473 549.842C570.473 556.019 565.401 561.026 559.144 561.026H104.72C98.4634 561.026 93.3911 556.019 93.3911 549.842C93.3911 543.665 98.4634 538.657 104.72 538.657H559.144C565.401 538.657 570.473 543.665 570.473 549.842Z" fill="#D3D3D3"/>
<path opacity="0.4" d="M153.219 492.643C153.219 492.643 144.193 524.161 166.332 525.236C188.47 526.31 185.026 504.394 181.179 495.803C177.333 487.211 206.515 456.946 174.763 440.61C143.012 424.275 131.952 485.102 153.219 492.643Z" fill="#2A94F4"/>
<path opacity="0.4" d="M115.151 504.954C115.151 504.954 108.67 523.218 121.685 524.644C134.701 526.071 133.476 513.024 131.524 507.819C129.571 502.615 147.893 485.813 129.769 475.041C111.645 464.27 102.887 499.744 115.151 504.954Z" fill="#2A94F4"/>
<path d="M122.735 488.191L122.948 540.324" stroke="#4D4D4D" stroke-miterlimit="10"/>
<path d="M128.543 500.578L122.814 507.56L116.743 501.323" stroke="#4D4D4D" stroke-miterlimit="10"/>
<path d="M164.619 459.663L165.446 538.657" stroke="#4D4D4D" stroke-miterlimit="10"/>
<path d="M174.645 469.816L164.819 478.762L155.919 470.552" stroke="#4D4D4D" stroke-miterlimit="10"/>
<path d="M174.591 486.423L164.765 495.369L155.865 487.158" stroke="#4D4D4D" stroke-miterlimit="10"/>
<path opacity="0.4" d="M518.161 492.643C518.161 492.643 509.135 524.161 531.273 525.236C553.412 526.31 549.968 504.394 546.121 495.803C542.275 487.211 571.457 456.946 539.705 440.61C507.954 424.275 496.893 485.102 518.161 492.643Z" fill="#2A94F4"/>
<path opacity="0.4" d="M480.093 504.954C480.093 504.954 473.612 523.218 486.627 524.644C499.643 526.071 498.418 513.024 496.465 507.819C494.513 502.615 512.835 485.813 494.711 475.041C476.587 464.27 467.829 499.744 480.093 504.954Z" fill="#2A94F4"/>
<path d="M487.676 488.191L487.89 540.324" stroke="#4D4D4D" stroke-miterlimit="10"/>
<path d="M493.485 500.578L487.756 507.56L481.685 501.323" stroke="#4D4D4D" stroke-miterlimit="10"/>
<path d="M529.56 459.663L530.388 538.657" stroke="#4D4D4D" stroke-miterlimit="10"/>
<path d="M539.586 469.816L529.76 478.762L520.861 470.552" stroke="#4D4D4D" stroke-miterlimit="10"/>
<path d="M539.532 486.423L529.706 495.369L520.807 487.158" stroke="#4D4D4D" stroke-miterlimit="10"/>
<path d="M341.56 466.812L335.561 425.195L319.376 423.002L310.958 466.511L341.56 466.812Z" fill="#FAB9AF"/>
<path d="M329.05 531.297L329.067 535.987C329.071 536.942 328.939 537.892 328.677 538.81L328.264 540.255C327.925 541.441 328.828 542.619 330.077 542.614C333.313 542.602 338.844 542.611 340.27 542.613C340.503 542.614 340.731 542.458 340.752 542.229C340.872 540.859 336.865 539.942 333.847 538.789C331.549 537.911 331.671 533.831 331.954 531.449C332.061 530.549 331.301 529.783 330.387 529.859C329.629 529.921 329.048 530.547 329.05 531.297Z" fill="#0E538C"/>
<path d="M306.808 529.981L305.171 535.347C305.099 535.584 304.991 535.81 304.85 536.015L303.69 537.717C302.953 538.797 303.483 540.272 304.745 540.652C304.745 540.652 307.085 541.465 309.498 542.248C311.967 543.049 315.073 542.379 315.073 541.736C315.073 540.307 313.723 541.441 311.462 539.949C310.705 539.449 309.923 538.925 309.226 538.385C307.28 536.877 308.979 533.059 310.17 530.909C310.598 530.135 310.144 529.175 309.27 528.992L308.706 528.873C307.878 528.698 307.053 529.181 306.808 529.981Z" fill="#0E538C"/>
<path d="M323.531 467.214L341.465 465.728C341.465 465.728 343.271 478.614 338.739 501.943C336.613 512.883 332.183 533.788 332.183 533.788C331.085 534.262 329.969 534.381 328.832 534.101C328.832 534.101 328.495 524.88 328.29 514.949C328.093 505.425 328.039 495.249 327.425 491.919C326.169 485.118 323.531 467.214 323.531 467.214Z" fill="#EC9B69"/>
<path opacity="0.07" d="M323.531 467.214L341.465 465.728C341.465 465.728 343.271 478.614 338.739 501.943C336.613 512.883 332.183 533.788 332.183 533.788C331.085 534.262 329.969 534.381 328.832 534.101C328.832 534.101 328.495 524.88 328.29 514.949C328.093 505.425 328.039 495.249 327.425 491.919C326.169 485.118 323.531 467.214 323.531 467.214Z" fill="black"/>
<path d="M327.233 467.438C329.084 477.249 333.221 491.92 325.253 505.702C317.285 519.484 308.917 533.812 308.917 533.812C307.839 533.856 306.861 533.47 305.952 532.789C305.952 532.789 307.349 526.541 309.369 519.245C311.679 510.899 314.605 501.082 313.772 495.964C312.209 486.371 310.414 473.595 310.958 467.391C311.502 461.187 326.259 462.28 327.233 467.438Z" fill="#EC9B69"/>
<path opacity="0.07" d="M327.233 467.438C329.084 477.249 333.221 491.92 325.253 505.702C317.285 519.484 308.917 533.812 308.917 533.812C307.839 533.856 306.861 533.47 305.952 532.789C305.952 532.789 307.349 526.541 309.369 519.245C311.679 510.899 314.605 501.082 313.772 495.964C312.209 486.371 310.414 473.595 310.958 467.391C311.502 461.187 326.259 462.28 327.233 467.438Z" fill="black"/>
<path d="M342.18 465.752L335.561 425.195L319.376 423.002L310.678 465.828C310.515 466.632 311.043 467.414 311.86 467.567C314.873 468.131 322.141 469.309 330.276 469.309C336.348 469.309 339.761 468.143 341.313 467.405C341.942 467.105 342.291 466.432 342.18 465.752Z" fill="white"/>
<path d="M324.432 425.528C324.432 428.449 323.895 431.343 322.884 434.089C320.906 439.461 317.94 449.619 319.703 458.568C322.241 471.456 325.504 476.665 321.274 479.668C317.043 482.672 308.93 477.66 308.696 475.99C308.462 474.319 310.275 453.797 312.33 444.907C314.385 436.016 320.14 423.234 320.14 423.234L322.578 423.491C323.632 423.603 324.432 424.481 324.432 425.528Z" fill="#EC9B69"/>
<path d="M331.17 424.6C331.17 424.6 333.977 430.589 332.998 439.194C332.019 447.799 329.751 474.002 337.682 477.958C340.193 479.212 345.929 473.663 345.929 471.604C345.929 469.546 344.015 462.655 342.201 456.39C340.388 450.125 336.016 425.256 336.016 425.256L331.17 424.6Z" fill="#EC9B69"/>
<path d="M328.91 406.038C325.298 406.038 323.95 408.576 323.882 413.272C323.856 415.031 324.658 416.774 325.302 417.886C325.782 418.713 325.913 419.692 325.64 420.605L324.846 423.256C324.307 425.714 325.49 427.063 327.236 427.552C328.1 427.795 329.137 427.607 329.892 427.125C330.79 426.552 330.864 425.32 330.697 424.277L330.492 423.522C330.216 422.504 330.814 421.406 331.857 421.181C334.638 420.581 335.036 417.719 335.782 413.273C336.558 408.639 332.523 406.038 328.91 406.038Z" fill="#FAB9AF"/>
<path d="M328.777 403.427C326.272 403.427 322.134 404.824 322.657 408.393L323.119 410.917C323.303 411.925 324.155 412.68 325.189 412.768C325.285 413.117 325.605 413.359 325.972 413.359C326.419 413.359 326.782 413.001 326.782 412.559C326.782 411.42 327.592 410.449 328.717 410.199C330.097 409.893 331.571 409.82 333.113 410.23C335.943 410.98 339.302 406.355 339.306 406.308C339.306 406.308 337.873 407.391 335.039 406.363C332.206 405.336 333.387 403.289 328.777 403.427Z" fill="#0E538C"/>
<path d="M325.873 413.359C325.873 414.448 325.462 415.33 324.4 415.33C323.339 415.33 322.657 413.833 322.657 412.744C322.657 411.655 323.339 411.388 324.4 411.388C325.462 411.388 325.873 412.27 325.873 413.359Z" fill="#FAB9AF"/>
<path d="M320.4 411.696C320.4 411.696 320.017 412.589 319.103 413.846C318.648 414.477 318.057 415.195 317.331 415.964C316.615 416.744 315.806 417.617 314.911 418.551C314.022 419.492 313.042 420.489 312.056 421.582C311.061 422.664 310.081 423.864 309.167 425.148C308.275 426.442 307.41 427.807 306.76 429.201C306.443 429.896 306.169 430.599 306.011 431.252C305.846 431.9 305.799 432.51 305.883 432.88C305.925 433.062 305.987 433.182 306.042 433.25C306.107 433.313 306.17 433.338 306.248 433.389C306.407 433.481 306.752 433.669 307.319 433.779L307.636 433.857C307.685 433.867 307.753 433.888 307.785 433.89L307.876 433.894L308.242 433.922L308.67 433.94L309.078 433.913C309.61 433.84 310.074 433.684 310.473 433.462C311.268 433.015 311.848 432.454 312.559 431.889C313.254 431.308 314.022 430.641 314.723 429.886C316.126 428.373 317.328 426.665 318.227 425.38C318.692 424.704 319.058 424.174 319.307 423.812C319.572 423.433 319.734 423.222 319.734 423.222L320.548 423.247C320.548 423.247 320.687 423.471 320.909 423.908C321.113 424.344 321.402 424.998 321.627 425.863C322.075 427.58 322.359 430.219 321.276 433.348C320.726 434.892 319.831 436.584 318.297 438.045C317.526 438.766 316.597 439.417 315.531 439.906C314.468 440.4 313.269 440.713 312.051 440.839C309.602 441.08 307.135 440.538 305.174 439.629C304.656 439.4 304.053 439.113 303.49 438.751C302.918 438.364 302.34 437.922 301.833 437.309C301.327 436.713 300.917 435.989 300.663 435.238C300.419 434.485 300.333 433.736 300.342 433.048C300.377 431.669 300.745 430.553 301.158 429.566C301.578 428.576 302.085 427.722 302.61 426.917C303.661 425.315 304.799 423.926 305.948 422.648C307.083 421.363 308.21 420.178 309.267 419.052C310.335 417.937 311.36 416.906 312.352 416.003C313.339 415.096 314.288 414.315 315.149 413.648C316 412.97 316.802 412.447 317.504 412.066C318.903 411.297 319.88 411.078 319.88 411.078L320.4 411.696Z" fill="#EC9B69"/>
<path d="M348.508 469.341C348.508 469.341 347.965 468.634 347.518 467.351C347.281 466.711 347.123 465.92 346.931 465.015C346.752 464.109 346.569 463.085 346.414 461.964C346.249 460.844 346.09 459.628 345.854 458.353C345.616 457.078 345.294 455.746 344.967 454.375C344.629 453.006 344.242 451.601 343.823 450.204C343.624 449.498 343.38 448.817 343.169 448.122C342.934 447.442 342.718 446.797 342.44 446.065C342.182 445.373 341.904 444.679 341.629 443.998C341.33 443.325 341.033 442.659 340.711 442.017C340.078 440.73 339.409 439.52 338.855 438.347C338.29 437.176 337.812 436.047 337.356 434.967C336.885 433.897 336.435 432.882 335.981 431.942C335.525 431.005 335.092 430.124 334.67 429.338C334.249 428.554 333.872 427.836 333.536 427.246C333.199 426.632 332.935 426.151 332.754 425.822C332.568 425.484 332.475 425.288 332.475 425.288L332.877 424.725C332.877 424.725 333.094 424.753 333.49 424.834C333.694 424.868 333.931 424.93 334.21 425.01C334.491 425.088 334.819 425.176 335.166 425.308C335.872 425.558 336.709 425.921 337.613 426.443C338.514 426.965 339.5 427.634 340.46 428.493C341.422 429.349 342.39 430.369 343.256 431.549C344.13 432.721 344.921 434.044 345.5 435.484C346.103 436.917 346.476 438.464 346.804 440.008C347.108 441.532 347.418 443.079 347.727 444.628C347.871 445.355 348.017 446.184 348.154 446.97C348.265 447.752 348.374 448.536 348.449 449.299C348.621 450.832 348.734 452.325 348.848 453.765C348.976 455.203 349.053 456.592 349.177 457.9C349.302 459.209 349.465 460.437 349.583 461.576C349.713 462.712 349.779 463.76 349.812 464.69C349.833 465.623 349.854 466.434 349.758 467.115C349.598 468.471 349.202 469.274 349.202 469.274L348.508 469.341Z" fill="#EC9B69"/>
<path d="M324.829 411.281C323.858 411.769 322.939 412.363 322.534 412.517C322.366 412.581 321.862 412.617 321.716 412.638C321.289 412.698 320.619 412.725 320.289 413L318.883 414.13C318.213 414.687 317.432 414.79 316.867 414.129C316.256 413.412 316.598 412.571 317.389 412.055L318.359 411.247C318.993 410.834 319.377 410.178 319.789 409.548C320.626 408.265 322.205 407.439 323.533 406.893C324.367 406.55 325.477 407.044 326.917 407.78C327.625 408.141 328.613 408.91 327.631 409.117C326.808 409.289 324.554 408.317 323.192 410.301C323.125 410.399 322.972 410.661 323.062 410.774C323.333 411.112 324.125 410.556 324.621 410.414C325.317 410.214 325.822 410.394 325.951 410.653C326.09 410.928 325.522 410.933 324.829 411.281Z" fill="#FAB9AF"/>
<path d="M347.25 474.036C347.271 472.96 347.173 471.881 347.227 471.456C347.249 471.278 347.453 470.823 347.504 470.687C347.651 470.286 347.943 469.69 347.853 469.273L347.505 467.517C347.323 466.67 347.599 465.941 348.456 465.762C349.384 465.566 349.975 466.26 350.064 467.193L350.328 468.418C350.399 469.165 350.804 469.808 351.173 470.464C351.924 471.797 351.919 473.561 351.781 474.975C351.694 475.863 350.731 476.597 349.396 477.505C348.739 477.951 347.587 478.449 347.864 477.497C348.098 476.699 350.028 475.194 348.895 473.073C348.84 472.969 348.677 472.711 348.534 472.737C348.104 472.814 348.228 473.766 348.122 474.265C347.973 474.965 347.574 475.32 347.281 475.311C346.972 475.3 347.235 474.803 347.25 474.036Z" fill="#FAB9AF"/>
<path d="M325.434 418.138C325.434 418.138 328.132 421.8 331.489 421.304C331.489 421.304 330.791 421.633 330.622 422.168C330.622 422.168 327.433 421.935 325.434 418.138Z" fill="#E8948B"/>
<path d="M328.34 389.748C328.435 389.366 328.694 389.211 329.081 389.305L331.881 389.984C332.269 390.078 332.426 390.334 332.331 390.716L331.658 393.422C331.562 393.804 331.303 393.96 330.915 393.866L328.115 393.186C327.729 393.092 327.571 392.836 327.667 392.454L328.34 389.748ZM337.484 370.513C340.254 371.185 341.408 373.024 340.72 375.787L339.279 381.581C339.198 381.904 339.058 382.088 338.768 382.237L334.092 384.907C333.833 385.063 333.692 385.246 333.612 385.57L333.29 386.864C333.195 387.247 332.936 387.402 332.548 387.307L329.748 386.628C329.361 386.534 329.204 386.278 329.299 385.896L329.943 383.308C330.016 383.014 330.156 382.83 330.416 382.675L335.455 379.687L336.464 375.628C336.654 374.863 336.31 374.344 335.565 374.163L334.135 373.816C333.331 373.621 332.842 373.939 332.652 374.704L332.081 376.998C332.008 377.292 331.785 377.425 331.487 377.352L328.389 376.601C328.062 376.522 327.957 376.309 328.03 376.015L328.806 372.898C329.493 370.133 331.348 369.024 334.148 369.703L337.484 370.513Z" fill="#EC9B69"/>
</svg>
