<svg width="23" height="15" viewBox="0 0 23 15" fill="none" xmlns="http://www.w3.org/2000/svg">
<path d="M17.4062 2.625C17 2.21875 16.5312 2.01562 16 2.01562C15.4688 2.01562 15 2.21875 14.5938 2.625C14.1875 3 13.9844 3.45312 13.9844 3.98438C13.9844 4.51562 14.1875 4.98438 14.5938 5.39062C15 5.79688 15.4688 6 16 6C16.5312 6 17 5.79688 17.4062 5.39062C17.8125 4.98438 18.0156 4.51562 18.0156 3.98438C18.0156 3.45312 17.8125 3 17.4062 2.625ZM18.4844 6.46875C17.7969 7.15625 16.9688 7.5 16 7.5C15.0312 7.5 14.2031 7.15625 13.5156 6.46875C12.8281 5.78125 12.4844 4.95312 12.4844 3.98438C12.4844 3.01562 12.8281 2.20312 13.5156 1.54688C14.2031 0.859375 15.0312 0.515625 16 0.515625C16.9688 0.515625 17.7969 0.859375 18.4844 1.54688C19.1719 2.20312 19.5156 3.01562 19.5156 3.98438C19.5156 4.95312 19.1719 5.78125 18.4844 6.46875ZM8.40625 2.625C8 2.21875 7.53125 2.01562 7 2.01562C6.46875 2.01562 6 2.21875 5.59375 2.625C5.1875 3 4.98438 3.45312 4.98438 3.98438C4.98438 4.51562 5.1875 4.98438 5.59375 5.39062C6 5.79688 6.46875 6 7 6C7.53125 6 8 5.79688 8.40625 5.39062C8.8125 4.98438 9.01562 4.51562 9.01562 3.98438C9.01562 3.45312 8.8125 3 8.40625 2.625ZM9.48438 6.46875C8.79688 7.15625 7.96875 7.5 7 7.5C6.03125 7.5 5.20312 7.15625 4.51562 6.46875C3.82812 5.78125 3.48438 4.95312 3.48438 3.98438C3.48438 3.01562 3.82812 2.20312 4.51562 1.54688C5.20312 0.859375 6.03125 0.515625 7 0.515625C7.96875 0.515625 8.79688 0.859375 9.48438 1.54688C10.1719 2.20312 10.5156 3.01562 10.5156 3.98438C10.5156 4.95312 10.1719 5.78125 9.48438 6.46875ZM21.0156 12.9844V11.7656C21.0156 11.4531 20.4531 11.0781 19.3281 10.6406C18.2344 10.2031 17.125 9.98438 16 9.98438C15.1875 9.98438 14.1875 10.1719 13 10.5469C13.3438 10.9531 13.5156 11.3594 13.5156 11.7656V12.9844H21.0156ZM12.0156 12.9844V11.7656C12.0156 11.4531 11.4531 11.0781 10.3281 10.6406C9.23438 10.2031 8.125 9.98438 7 9.98438C5.875 9.98438 4.75 10.2031 3.625 10.6406C2.53125 11.0781 1.98438 11.4531 1.98438 11.7656V12.9844H12.0156ZM16 8.48438C17.3438 8.48438 18.7656 8.79688 20.2656 9.42188C21.7656 10.0156 22.5156 10.7969 22.5156 11.7656V14.4844H0.484375V11.7656C0.484375 10.7969 1.23438 10.0156 2.73438 9.42188C4.23438 8.79688 5.65625 8.48438 7 8.48438C8.46875 8.48438 9.96875 8.82812 11.5 9.51562C13.0312 8.82812 14.5312 8.48438 16 8.48438Z" fill="#EC9B69"/>
</svg>
